<svg width="35" height="31" viewBox="0 0 35 31" fill="none" xmlns="http://www.w3.org/2000/svg">
<g clip-path="url(#clip0_420_527)">
<path fill-rule="evenodd" clip-rule="evenodd" d="M22.3111 13.0421C23.5802 12.4643 24.6653 12.1023 25.5664 11.9562C27.0156 11.3528 28.2794 10.0904 29.3518 8.16116C30.3576 8.30156 30.9388 8.76717 31.0858 9.55531C29.5535 10.946 28.6982 12.4095 28.5208 13.9501C27.868 18.2028 24.5703 20.4291 18.5873 20.4653C11.1191 19.9797 0.739705 14.9794 1.83835 6.03126C2.76168 5.69586 3.22593 5.52992 3.22593 5.52992C7.53268 9.65446 16.0029 15.4458 22.3111 13.0421Z" fill="#FFDD2D"/>
<path fill-rule="evenodd" clip-rule="evenodd" d="M30.2974 8.4576C23.8365 19.7088 10.3231 14.7834 2.90982 5.64497L3.22601 5.53005C7.53276 9.65459 16.003 15.4459 22.3112 13.0422C23.5803 12.4645 24.6654 12.1025 25.5665 11.9563C27.0156 11.3529 28.2794 10.0905 29.3519 8.16128C29.7276 8.21533 30.044 8.31238 30.301 8.45242L30.2974 8.4576Z" fill="#FFEF8C"/>
<path fill-rule="evenodd" clip-rule="evenodd" d="M2.23124 5.89253C3.77969 16.1044 22.6618 23.358 28.0433 12.9909C28.8534 11.5271 29.8381 10.2913 31.0054 9.27754C31.0404 9.36554 31.064 9.46475 31.0832 9.56479C29.5509 10.9555 28.6956 12.419 28.5182 13.9596C27.8654 18.2123 24.5677 20.4385 18.5847 20.4748C11.1192 19.9796 0.739775 14.9794 1.83842 6.0312L2.2304 5.88818L2.23124 5.89253Z" fill="#E2D426"/>
<path fill-rule="evenodd" clip-rule="evenodd" d="M2.56616 5.5937C2.77027 5.48228 2.98759 5.46305 3.22598 5.52998C3.22598 5.52998 3.17311 5.63036 3.06386 5.83629C3.06386 5.83629 2.79568 5.91943 2.26016 6.09005C2.26016 6.09005 2.1213 6.07165 1.83405 6.03215C1.8906 5.90401 2.01491 5.77636 2.20864 5.65792C2.29514 5.59168 2.41258 5.5691 2.56097 5.59018L2.56616 5.5937Z" fill="#996633"/>
<path fill-rule="evenodd" clip-rule="evenodd" d="M22.1335 13.8071C22.6114 13.7828 26.1485 12.6607 25.3368 12.474C24.9941 12.4046 24.4384 12.6106 23.7436 12.9382C23.4757 13.0934 20.9328 13.8259 22.1335 13.8071Z" fill="white"/>
<path fill-rule="evenodd" clip-rule="evenodd" d="M26.8777 11.5506C26.4536 11.9253 26.5394 12.0667 27.0126 11.7592C27.8681 11.0715 28.7294 10.085 29.5869 8.797C29.6595 8.61164 29.4072 8.54287 29.2585 8.80151C28.4372 10.0194 27.6433 10.9343 26.8777 11.5506Z" fill="white"/>
<path fill-rule="evenodd" clip-rule="evenodd" d="M24.134 15.4613C25.1376 14.488 26.0402 13.7867 26.8401 13.3488C28.0042 12.295 28.7719 10.6815 29.1382 8.50461C30.1318 8.30004 30.8328 8.54415 31.2376 9.24213C30.2572 11.0635 29.9424 12.7342 30.2909 14.2414C31.0986 18.4659 28.7379 21.6712 23.1126 23.709C15.9089 25.7481 4.45811 24.5127 2.49521 15.7111C3.25476 15.0869 3.63671 14.7744 3.63671 14.7744C9.07663 17.2152 18.9951 19.8413 24.134 15.4613Z" fill="#FFDD2D"/>
<path fill-rule="evenodd" clip-rule="evenodd" d="M30.1271 8.4633C27.8055 21.2325 13.4215 21.1159 3.37536 14.987L3.63669 14.7744C9.0766 17.2152 18.9951 19.8413 24.1339 15.4613C25.1376 14.488 26.0402 13.7867 26.84 13.3488C28.0041 12.295 28.7719 10.6814 29.1382 8.50458C29.5115 8.42831 29.8425 8.41427 30.1315 8.46246L30.1271 8.4633Z" fill="#FFEF8C"/>
<path fill-rule="evenodd" clip-rule="evenodd" d="M2.81859 15.4459C7.69547 24.5532 27.9195 25.0626 29.519 13.4876C29.7927 11.8383 30.3077 10.341 31.0683 8.99494C31.1277 9.06922 31.1879 9.14785 31.2376 9.24204C30.2572 11.0634 29.9424 12.7342 30.2909 14.2414C31.0986 18.4658 28.7379 21.6711 23.1126 23.7089C15.9089 25.748 4.4581 24.5126 2.4952 15.711L2.81859 15.4459Z" fill="#E2D426"/>
<path fill-rule="evenodd" clip-rule="evenodd" d="M3.03258 15.0574C3.18499 14.8883 3.38726 14.7908 3.63235 14.7752C3.63235 14.7752 3.61327 14.8871 3.58031 15.1145C3.58031 15.1145 3.35579 15.2839 2.9111 15.622C2.9111 15.622 2.77191 15.6488 2.49084 15.7119C2.50407 15.5695 2.57735 15.4111 2.71939 15.2349C2.77828 15.1424 2.8795 15.0823 3.03258 15.0574Z" fill="#996633"/>
<path fill-rule="evenodd" clip-rule="evenodd" d="M24.221 16.2428C24.6594 16.0593 27.6201 13.8166 26.7906 13.913C26.448 13.9608 25.9891 14.3422 25.4439 14.8846C25.2458 15.1211 23.0929 16.6627 24.2167 16.2436L24.221 16.2428Z" fill="white"/>
<path fill-rule="evenodd" clip-rule="evenodd" d="M27.9398 12.5238C27.6695 13.0178 27.7938 13.1247 28.1359 12.6755C28.7145 11.7434 29.1926 10.5238 29.5713 9.02115C29.578 8.8214 29.3155 8.84029 29.2646 9.13875C28.8979 10.5624 28.4603 11.6885 27.9398 12.5238Z" fill="white"/>
<path fill-rule="evenodd" clip-rule="evenodd" d="M26.052 16.7571C26.7689 15.5593 27.4542 14.6427 28.1139 14.0152C28.9646 12.6924 29.2853 10.9348 29.0757 8.74237C29.9843 8.28351 30.7214 8.34025 31.2949 8.90657C30.8212 10.9237 30.952 12.6125 31.6793 13.9792C33.5556 17.8494 32.1077 21.5558 27.2096 24.9828C20.7812 28.8259 9.40089 30.608 5.22194 22.6204C5.7943 21.8203 6.07788 21.4184 6.07788 21.4184C11.965 22.3614 22.2274 22.3188 26.052 16.7571Z" fill="#FFDD2D"/>
<path fill-rule="evenodd" clip-rule="evenodd" d="M30.0195 8.44373C31.0986 21.3755 17.1723 25.0003 5.88284 21.6951L6.07775 21.4186C11.9649 22.3615 22.2273 22.3189 26.0519 16.7573C26.7688 15.5594 27.4541 14.6428 28.1138 14.0153C28.9645 12.6925 29.2851 10.9349 29.0756 8.74249C29.413 8.57386 29.7274 8.47283 30.0238 8.44289L30.0195 8.44373Z" fill="#FFEF8C"/>
<path fill-rule="evenodd" clip-rule="evenodd" d="M5.46322 22.2809C12.5393 29.8062 32.2006 25.0426 30.7388 13.4519C30.5723 11.7879 30.6831 10.206 31.0677 8.7112C31.1464 8.76826 31.2215 8.83049 31.2939 8.90227C30.8202 10.9194 30.951 12.6082 31.6784 13.9749C33.5546 17.8451 32.1067 21.5515 27.2086 24.9785C20.7802 28.8216 9.39991 30.6037 5.22096 22.6161L5.46238 22.2765L5.46322 22.2809Z" fill="#E2D426"/>
<path fill-rule="evenodd" clip-rule="evenodd" d="M26.3366 17.4873C26.7141 17.1982 28.9867 14.2624 28.2113 14.5694C27.8949 14.7069 27.5508 15.1925 27.1645 15.8577C27.0338 16.1399 25.3567 18.1854 26.3323 17.4881L26.3366 17.4873Z" fill="white"/>
<path fill-rule="evenodd" clip-rule="evenodd" d="M28.9609 12.9321C28.8274 13.481 28.9763 13.5516 29.1913 13.0277C29.5075 11.9745 29.6545 10.6743 29.6269 9.12345C29.5806 8.92939 29.3358 9.01704 29.3571 9.31516C29.3731 10.7825 29.2399 11.9899 28.9601 12.9278L28.9609 12.9321Z" fill="white"/>
<path fill-rule="evenodd" clip-rule="evenodd" d="M5.5689 21.8456C5.6738 21.6404 5.84077 21.5001 6.07767 21.4185C6.07767 21.4185 6.09071 21.5332 6.1168 21.7628C6.1168 21.7628 5.94749 21.9848 5.60016 22.4304C5.60016 22.4304 5.47285 22.4955 5.21821 22.6256C5.19145 22.4865 5.22575 22.313 5.31242 22.1069C5.34622 22.0011 5.42937 21.9175 5.56539 21.8507L5.5689 21.8456Z" fill="#996633"/>
</g>
<defs>
<clipPath id="clip0_420_527">
<rect width="29.562" height="25.1104" fill="white" transform="translate(0.614258 5.92847) rotate(-10.8834)"/>
</clipPath>
</defs>
</svg>
