<svg width="19" height="24" viewBox="0 0 19 24" fill="none" xmlns="http://www.w3.org/2000/svg">
<path d="M18.0353 14.988L16.8353 12.996C16.5833 12.552 16.3553 11.712 16.3553 11.22V8.184C16.3553 5.364 14.6993 2.928 12.3113 1.788C11.6873 0.684 10.5353 0 9.21527 0C7.90728 0 6.73128 0.708 6.10728 1.824C3.76727 2.988 2.14728 5.4 2.14728 8.184V11.22C2.14728 11.712 1.91928 12.552 1.66728 12.984L0.455275 14.988C-0.0247247 15.792 -0.132725 16.68 0.167275 17.496C0.455275 18.3 1.13928 18.924 2.02728 19.224C4.35528 20.016 6.80328 20.4 9.25128 20.4C11.6993 20.4 14.1473 20.016 16.4753 19.236C17.3153 18.96 17.9633 18.324 18.2753 17.496C18.5873 16.668 18.5033 15.756 18.0353 14.988Z" fill="#292D32"/>
<path d="M12.6233 21.6121C12.1193 23.0041 10.7873 24.0001 9.22726 24.0001C8.27926 24.0001 7.34326 23.6161 6.68326 22.9321C6.29926 22.5721 6.01126 22.0921 5.84326 21.6001C5.99926 21.6241 6.15526 21.6361 6.32326 21.6601C6.59926 21.6961 6.88726 21.7321 7.17526 21.7561C7.85926 21.8161 8.55526 21.8521 9.25126 21.8521C9.93526 21.8521 10.6193 21.8161 11.2913 21.7561C11.5433 21.7321 11.7953 21.7201 12.0353 21.6841C12.2273 21.6601 12.4193 21.6361 12.6233 21.6121Z" fill="#292D32"/>
</svg>
