<svg width="20" height="20" viewBox="0 0 20 20" fill="none" xmlns="http://www.w3.org/2000/svg">
<path d="M1.89873 15.9607C1.89863 15.7095 1.83302 15.4629 1.7086 15.246C1.67183 15.1832 1.63168 15.1226 1.58831 15.0644C0.554299 13.5008 0.00135849 11.6593 0 9.77469C0.0238756 8.46515 0.301355 7.17326 0.816548 5.97299C1.33174 4.77272 2.07453 3.68765 3.00239 2.7799C3.93025 1.87215 5.02495 1.15955 6.22381 0.682903C7.42268 0.206257 8.70216 -0.025075 9.98901 0.00215229C12.2487 -0.0298083 14.4514 0.723978 16.233 2.13887C18.0145 3.55375 19.2681 5.545 19.7866 7.78333C19.9279 8.44094 19.9994 9.11208 20 9.78522C19.996 11.0935 19.7379 12.3881 19.2408 13.5946C18.7436 14.8011 18.0171 15.8957 17.103 16.8157C16.1888 17.7356 15.1051 18.4627 13.914 18.9552C12.7229 19.4477 11.4479 19.6958 10.1623 19.6854C9.24278 19.6428 8.33124 19.4913 7.44616 19.234C6.79946 19.0524 6.15275 18.8128 5.98461 18.7483C5.81348 18.6825 5.63209 18.6486 5.44914 18.6483C5.24982 18.6476 5.05237 18.6874 4.8684 18.7654L1.60641 19.9421C1.53508 19.9726 1.45966 19.9922 1.38266 20C1.32209 20.0003 1.26206 19.9885 1.20604 19.965C1.15002 19.9416 1.09913 19.9071 1.0563 19.8635C1.01347 19.82 0.979571 19.7682 0.956552 19.7112C0.933534 19.6542 0.921859 19.5931 0.922202 19.5314C0.926117 19.4779 0.935655 19.425 0.950656 19.3735L1.89873 15.9607Z" fill="#AEAEAE"/>
</svg>
