<svg width="21" height="20" viewBox="0 0 21 20" fill="none" xmlns="http://www.w3.org/2000/svg">
<g clip-path="url(#clip0_420_356)">
<path d="M15.8416 9.2833C15.8796 9.94108 16.0496 10.5855 16.3423 11.1807C16.5581 11.6196 16.8825 12.0006 17.2867 12.2902C17.9621 12.7762 18.2248 13.4392 18.0863 14.2464C18.0771 14.3019 18.0719 14.3574 18.065 14.4073C18.3438 14.4445 18.622 14.46 18.8893 14.5221C19.448 14.6551 19.9504 14.9518 20.3274 15.3714C20.7044 15.791 20.9376 16.3129 20.9949 16.8655C21.0196 17.093 20.9661 17.1784 20.7075 17.3094C20.8701 17.9502 20.769 18.5549 20.3729 19.103C20.0825 19.5143 19.6451 19.8078 19.1445 19.9274C18.8497 20.0064 18.5408 20.0236 18.2385 19.9779C17.9362 19.9321 17.6475 19.8245 17.3919 19.6622C16.8498 19.3293 16.5389 18.8384 16.3963 18.2198L16.2785 18.349C16.0681 18.5787 15.8014 18.5432 15.6605 18.2647C15.6207 18.1832 15.5853 18.0997 15.5548 18.0145C15.5254 17.9374 15.503 17.8581 15.4904 17.8181C15.3018 17.8436 15.1288 17.8863 14.9558 17.8863C13.1547 17.8912 11.3536 17.8923 9.55246 17.8897H9.28344C9.20124 18.5604 8.90176 19.1002 8.33441 19.4858C7.94474 19.7512 7.47435 19.8834 6.99795 19.8614C5.90578 19.8275 5.23152 19.2123 4.86248 17.913C4.70059 17.8929 4.54025 17.8625 4.3825 17.822C3.72721 17.6151 3.36104 17.0026 3.42198 16.2525C3.46432 15.747 3.59696 15.2525 3.814 14.7906C4.02554 14.3368 4.26812 13.8963 4.50897 13.4558C4.531 13.4209 4.56078 13.3911 4.59616 13.3685C4.63153 13.346 4.67164 13.3313 4.7136 13.3255C6.39956 13.3182 8.08494 13.3205 9.77204 13.3216C9.79168 13.3247 9.81093 13.3297 9.82952 13.3366C9.61971 14.0495 9.76112 14.6797 10.3515 15.2489C10.371 14.9765 10.3894 14.7524 10.4032 14.5277C10.4768 13.3371 10.5496 12.1464 10.6216 10.9554C10.6377 10.688 10.5187 10.5593 10.2399 10.5299C9.70594 10.4744 9.17135 10.4189 8.63734 10.359C8.49381 10.3459 8.35478 10.3036 8.22937 10.2349C8.10397 10.1663 7.99502 10.0728 7.90969 9.9606C7.82436 9.84843 7.76457 9.72012 7.73424 9.58408C7.70391 9.44804 7.70374 9.30734 7.73372 9.17123C8.05332 7.6648 8.37733 6.1593 8.70575 4.65473C8.85118 3.98898 9.42715 3.58954 10.1066 3.66388C10.7245 3.73156 11.1763 4.26027 11.193 4.91714C11.2001 5.00985 11.239 5.09766 11.3034 5.16679C11.9081 5.81589 12.7019 6.16097 13.5302 6.45223C13.9124 6.59158 14.3192 6.65718 14.7276 6.6453C15.2863 6.62699 15.8462 6.63864 16.4055 6.64141C17.1177 6.64474 17.5235 7.03975 17.5264 7.72879C17.5264 7.93739 17.5316 8.14543 17.5218 8.35348C17.5099 8.59851 17.4027 8.83019 17.2215 9.00225C17.0404 9.17431 16.7986 9.27408 16.5446 9.28163C16.317 9.28996 16.0888 9.2833 15.8416 9.2833ZM10.6987 7.06804C10.6136 7.41756 10.536 7.72657 10.4636 8.03725C10.3963 8.32962 10.4601 8.44391 10.7469 8.54876C11.2355 8.72703 11.7249 8.90382 12.215 9.07914C12.8157 9.29439 13.0566 9.63892 12.9928 10.2592C12.8657 11.5008 12.7226 12.7407 12.587 13.9812C12.5295 14.5033 12.4749 15.0253 12.4174 15.5579H13.7395V8.27692C12.6291 8.15476 11.576 7.73611 10.6987 7.06804ZM19.2417 17.0098C18.5561 16.9988 17.88 17.1655 17.2838 17.4925C17.1235 17.579 17.0407 17.6961 17.0539 17.878C17.097 18.4744 17.3787 18.9271 17.942 19.1773C18.5053 19.4275 19.0692 19.3587 19.5515 18.9687C20.0338 18.5787 20.1867 18.0778 20.0504 17.4925C19.9568 17.0908 19.8901 17.042 19.4728 17.0198C19.3791 17.0148 19.2859 17.0115 19.2417 17.0098ZM5.59193 17.8974C5.6063 18.6481 6.36852 19.2517 7.21236 19.1934C7.93261 19.1429 8.61722 18.48 8.5448 17.8974H5.59193Z" fill="#00AB59"/>
<path d="M3.43284 10.3223H1.13355C0.427668 10.3217 0 9.91453 0 9.23991C0 8.07486 0 6.90981 0 5.74476C0 5.07902 0.426518 4.66016 1.10941 4.66016C2.66564 4.66016 4.2215 4.66016 5.77697 4.66016C6.46158 4.66016 6.88523 5.07625 6.8858 5.74254C6.8858 6.90759 6.8858 8.07264 6.8858 9.23769C6.8858 9.91231 6.45986 10.3195 5.75628 10.3201L3.43284 10.3223Z" fill="#00AB59"/>
<path d="M9.97315 12.6535H9.73805C8.01703 12.6535 6.29659 12.6507 4.57614 12.6579C4.5059 12.6617 4.43587 12.6475 4.37317 12.6167C4.31047 12.5859 4.25734 12.5397 4.21918 12.4826C3.95578 12.1506 3.807 11.7472 3.79381 11.3292C3.78576 11.0735 3.91624 10.9409 4.18411 10.9409C5.98522 10.9387 7.78461 10.9387 9.58227 10.9409C9.8329 10.9409 9.96855 11.0552 9.97315 11.2876C9.98005 11.732 9.97315 12.1753 9.97315 12.6535Z" fill="#00AB59"/>
<path d="M12.7386 1.67101C12.7366 1.99922 12.6339 2.31948 12.4434 2.59138C12.2529 2.86328 11.9832 3.07462 11.6684 3.19873C11.3536 3.32283 11.0077 3.35414 10.6745 3.2887C10.3413 3.22326 10.0356 3.06401 9.79605 2.83104C9.55651 2.59807 9.39385 2.30183 9.32861 1.97972C9.26336 1.65761 9.29845 1.32406 9.42945 1.02117C9.56045 0.718291 9.78148 0.459654 10.0647 0.277909C10.3478 0.0961647 10.6804 -0.000539914 11.0205 2.26739e-06C11.247 0.000802101 11.4711 0.0446628 11.6801 0.129079C11.889 0.213495 12.0787 0.336813 12.2382 0.491989C12.3978 0.647164 12.5241 0.831157 12.61 1.03346C12.6958 1.23576 12.7395 1.4524 12.7386 1.67101Z" fill="#00AB59"/>
</g>
<defs>
<clipPath id="clip0_420_356">
<rect width="21" height="20" fill="white"/>
</clipPath>
</defs>
</svg>
