<svg width="23" height="23" viewBox="0 0 23 23" fill="none" xmlns="http://www.w3.org/2000/svg">
<path d="M15.1417 2.11789C14.7487 1.72497 14.0683 1.99331 14.0683 2.53956V5.88414C14.0683 7.28331 15.2567 8.44289 16.7037 8.44289C17.6142 8.45247 18.8792 8.45247 19.9621 8.45247C20.5083 8.45247 20.7958 7.81039 20.4125 7.42706C19.0325 6.03747 16.56 3.53622 15.1417 2.11789Z" fill="black"/>
<path d="M19.6458 9.76525H16.8763C14.605 9.76525 12.7554 7.91567 12.7554 5.64442V2.87484C12.7554 2.34775 12.3242 1.9165 11.7971 1.9165H7.73375C4.78208 1.9165 2.39583 3.83317 2.39583 7.25442V15.7453C2.39583 19.1665 4.78208 21.0832 7.73375 21.0832H15.2663C18.2179 21.0832 20.6042 19.1665 20.6042 15.7453V10.7236C20.6042 10.1965 20.1729 9.76525 19.6458 9.76525ZM11.0208 17.0103H7.1875C6.79458 17.0103 6.46875 16.6844 6.46875 16.2915C6.46875 15.8986 6.79458 15.5728 7.1875 15.5728H11.0208C11.4138 15.5728 11.7396 15.8986 11.7396 16.2915C11.7396 16.6844 11.4138 17.0103 11.0208 17.0103ZM12.9375 13.1769H7.1875C6.79458 13.1769 6.46875 12.8511 6.46875 12.4582C6.46875 12.0653 6.79458 11.7394 7.1875 11.7394H12.9375C13.3304 11.7394 13.6563 12.0653 13.6563 12.4582C13.6563 12.8511 13.3304 13.1769 12.9375 13.1769Z" fill="black"/>
</svg>
