<svg width="35" height="21" viewBox="0 0 35 21" fill="none" xmlns="http://www.w3.org/2000/svg">
<path d="M24.8681 12.9007C24.9571 12.7751 24.9299 12.5996 24.802 12.5097L24.1785 12.0701C24.0507 11.9788 23.874 12.0102 23.7849 12.1358C23.693 12.2628 23.7232 12.4369 23.851 12.5268L24.4745 12.9664C24.6023 13.0563 24.7776 13.0277 24.8681 12.9007Z" fill="#513918"/>
<path d="M26.046 8.03273C26.1351 7.90714 26.1064 7.73018 25.98 7.6417L25.3551 7.20072C25.2286 7.11224 25.0505 7.14079 24.9614 7.26637C24.8724 7.39196 24.9011 7.56892 25.0275 7.6574L25.6524 8.09838C25.7788 8.18686 25.957 8.15832 26.046 8.03273Z" fill="#513918"/>
<path d="M23.3353 11.8189C23.4244 11.6933 23.3956 11.5163 23.2692 11.4278L22.6443 10.9869C22.5179 10.8984 22.3398 10.9269 22.2507 11.0525C22.1588 11.1795 22.1904 11.3551 22.3168 11.4435L22.9417 11.8845C23.0681 11.973 23.2448 11.9459 23.3353 11.8189Z" fill="#513918"/>
<path d="M25.7717 11.6376C25.8622 11.512 25.832 11.3393 25.7042 11.248L25.0807 10.8084C24.9529 10.7171 24.7776 10.747 24.6886 10.8726C24.5966 10.9996 24.6268 11.1737 24.7546 11.2637L25.3781 11.7032C25.5059 11.7945 25.6812 11.7646 25.7717 11.6376Z" fill="#513918"/>
<path d="M26.9497 6.76983C27.0387 6.64424 27.0086 6.47013 26.8822 6.38023L26.2573 5.93925C26.1308 5.85077 25.9541 5.87788 25.8651 6.00347C25.7746 6.13048 25.8047 6.30602 25.9312 6.3945L26.5561 6.83548C26.6825 6.92396 26.8592 6.89684 26.9497 6.76983Z" fill="#513918"/>
<path d="M24.2403 10.556C24.3294 10.4304 24.2992 10.2563 24.1728 10.1664L23.5479 9.72538C23.4215 9.6369 23.2448 9.66402 23.1557 9.7896C23.0638 9.91661 23.0954 10.0921 23.2218 10.1806L23.8467 10.6216C23.9731 10.7101 24.1498 10.683 24.2403 10.556Z" fill="#513918"/>
<path d="M26.6739 10.3774C26.7658 10.2504 26.7356 10.0763 26.6078 9.9864L25.9843 9.54685C25.8565 9.45551 25.6812 9.48548 25.5907 9.61249C25.5002 9.73808 25.5289 9.91361 25.6568 10.0035L26.2802 10.4431C26.4081 10.533 26.5848 10.503 26.6739 10.3774Z" fill="#513918"/>
<path d="M23.9645 14.1636C24.0536 14.0381 24.0263 13.8625 23.8984 13.7726L23.275 13.3331C23.1471 13.2417 22.9704 13.2731 22.8814 13.3987C22.7908 13.5243 22.8196 13.6998 22.9474 13.7897L23.5709 14.2293C23.6987 14.3206 23.8754 14.2892 23.9645 14.1636Z" fill="#513918"/>
<path d="M25.1425 9.29583C25.2344 9.16881 25.2028 8.99328 25.0764 8.9048L24.4515 8.46382C24.3251 8.37534 24.1484 8.40245 24.0579 8.52947C23.9688 8.65505 23.9975 8.83201 24.124 8.9205L24.7489 9.36147C24.8753 9.44995 25.0534 9.42141 25.1425 9.29583Z" fill="#513918"/>
<path d="M26.3649 14.028C26.3764 14.0151 26.3908 14.0008 26.4023 13.9837C26.4913 13.8581 26.4626 13.6812 26.3362 13.5927L25.7127 13.1531C25.5849 13.0618 25.4082 13.0932 25.3191 13.2188C25.2272 13.3458 25.2573 13.5199 25.3852 13.6098L26.0087 14.0494C26.1193 14.1264 26.2672 14.1164 26.3649 14.0265V14.028Z" fill="#513918"/>
<path d="M28.2081 11.4607C28.3 11.3337 28.2684 11.1581 28.142 11.0697L27.5185 10.6301C27.3907 10.5388 27.2154 10.5687 27.1249 10.6957C27.0359 10.8213 27.0632 10.9969 27.191 11.0868L27.8145 11.5263C27.9409 11.6148 28.119 11.5863 28.2081 11.4607Z" fill="#513918"/>
<path d="M27.3059 12.7208C27.395 12.5952 27.3648 12.4211 27.2384 12.3312L26.6149 11.8917C26.4871 11.8003 26.3118 11.8303 26.2227 11.9559C26.1308 12.0829 26.161 12.257 26.2888 12.3469L26.9123 12.7865C27.0387 12.8749 27.2154 12.8478 27.3059 12.7208Z" fill="#513918"/>
<path d="M22.4317 13.0818C22.5208 12.9562 22.4921 12.7793 22.3656 12.6908L21.7407 12.2498C21.6143 12.1613 21.4362 12.1899 21.3471 12.3154C21.2566 12.441 21.2868 12.618 21.4132 12.7065L22.0381 13.1474C22.1645 13.2359 22.3427 13.2074 22.4317 13.0818Z" fill="#513918"/>
<path d="M26.6322 14.3577C27.1235 13.9824 27.5674 13.5314 27.9437 13.0048C28.2497 12.5781 28.4939 12.1229 28.6793 11.6562C29.7207 9.02603 28.8761 5.93348 26.4512 4.22095L23.5996 8.20687L21.7939 10.7314L19.1047 14.4904C21.429 16.1316 24.4845 15.9946 26.6322 14.3591V14.3577ZM25.9297 6.39444C25.8033 6.30595 25.7717 6.13042 25.8636 6.00341C25.9541 5.87782 26.1294 5.85071 26.2558 5.93919L26.8807 6.38016C27.0071 6.46865 27.0387 6.64418 26.9482 6.76977C26.8563 6.89678 26.681 6.92532 26.5546 6.83541L25.9297 6.39444ZM25.0261 7.65743C24.8997 7.56895 24.8695 7.39199 24.96 7.2664C25.0505 7.14081 25.2272 7.11085 25.3536 7.20075L25.9785 7.64173C26.105 7.73021 26.1351 7.90717 26.0446 8.03276C25.9541 8.15834 25.7774 8.18831 25.651 8.0984L25.0261 7.65743ZM26.5603 8.7406C26.4325 8.64927 26.4038 8.47516 26.4943 8.34958C26.5848 8.22399 26.76 8.19259 26.8879 8.28393L27.5113 8.72348C27.6392 8.81481 27.6679 8.98892 27.5774 9.11451C27.4884 9.24009 27.3117 9.27149 27.1838 9.18015L26.5603 8.7406ZM24.1225 8.92042C23.9961 8.83194 23.9659 8.65498 24.0564 8.52939C24.1484 8.40238 24.3236 8.37384 24.4501 8.46375L25.075 8.90472C25.2014 8.9932 25.233 9.16874 25.141 9.29575C25.052 9.42134 24.8738 9.4513 24.7474 9.3614L24.1225 8.92042ZM25.6568 10.0036C25.5289 9.91226 25.5002 9.73815 25.5907 9.61257C25.6826 9.48556 25.8564 9.45559 25.9843 9.54692L26.6078 9.98647C26.7356 10.0778 26.7658 10.2505 26.6738 10.3775C26.5848 10.5031 26.4081 10.5345 26.2802 10.4431L25.6568 10.0036ZM27.191 11.0868C27.0631 10.9954 27.0344 10.8213 27.1249 10.6957C27.2168 10.5687 27.3907 10.5388 27.5185 10.6301L28.142 11.0696C28.2684 11.1581 28.3 11.3337 28.2081 11.4607C28.119 11.5863 27.9409 11.6162 27.8144 11.5263L27.191 11.0868ZM23.2204 10.1806C23.094 10.0921 23.0624 9.91654 23.1543 9.78953C23.2434 9.66394 23.4201 9.63683 23.5465 9.72531L24.1714 10.1663C24.2978 10.2548 24.3294 10.4303 24.2389 10.5559C24.1469 10.6829 23.9717 10.7114 23.8453 10.6215L23.2204 10.1806ZM24.7546 11.2637C24.6268 11.1724 24.5966 10.9997 24.6885 10.8727C24.7776 10.7471 24.9529 10.7186 25.0807 10.8085L25.7042 11.248C25.832 11.3394 25.8622 11.5121 25.7717 11.6376C25.6797 11.7647 25.5059 11.7946 25.3781 11.7033L24.7546 11.2637ZM26.2888 12.3469C26.161 12.2556 26.1308 12.0829 26.2228 11.9559C26.3118 11.8303 26.4871 11.8018 26.6149 11.8917L27.2384 12.3312C27.3648 12.4197 27.3964 12.5952 27.3059 12.7208C27.214 12.8478 27.0387 12.8764 26.9123 12.7865L26.2888 12.3469ZM22.3168 11.4436C22.1904 11.3536 22.1588 11.1795 22.2507 11.0525C22.3398 10.9269 22.5179 10.897 22.6443 10.9869L23.2692 11.4279C23.3956 11.5163 23.4258 11.6933 23.3353 11.8189C23.2434 11.9459 23.0681 11.9744 22.9417 11.8845L22.3168 11.4436ZM23.851 12.5267C23.7232 12.4354 23.693 12.2627 23.7849 12.1357C23.874 12.0101 24.0507 11.9787 24.1786 12.0701L24.802 12.5096C24.9299 12.6009 24.9586 12.775 24.8681 12.9006C24.7762 13.0276 24.6023 13.0576 24.4745 12.9663L23.851 12.5267ZM25.3853 13.6099C25.2574 13.5186 25.2272 13.3459 25.3192 13.2189C25.4082 13.0933 25.5849 13.0619 25.7128 13.1532L26.3362 13.5928C26.4627 13.6813 26.4928 13.8582 26.4023 13.9838C26.3908 13.9995 26.3765 14.0152 26.365 14.028C26.2673 14.118 26.1179 14.1279 26.0087 14.0509L25.3853 13.6113V13.6099ZM21.4132 12.7065C21.2868 12.6181 21.2566 12.4411 21.3471 12.3155C21.4362 12.1899 21.6143 12.16 21.7407 12.2499L22.3656 12.6908C22.492 12.7793 22.5222 12.9563 22.4317 13.0819C22.3412 13.2075 22.1645 13.2374 22.0381 13.1475L21.4132 12.7065ZM22.9474 13.7897C22.8196 13.6984 22.7909 13.5243 22.8814 13.3987C22.9704 13.2731 23.1471 13.2417 23.275 13.333L23.8984 13.7726C24.0263 13.8625 24.055 14.038 23.9645 14.1636C23.874 14.2892 23.6987 14.3206 23.5709 14.2293L22.9474 13.7897ZM21.462 13.9538C21.5885 14.0423 21.6201 14.2179 21.5281 14.3449C21.4376 14.4705 21.2624 14.4976 21.136 14.4091L20.5111 13.9681C20.3846 13.8796 20.353 13.7041 20.4435 13.5785C20.5355 13.4515 20.7107 13.423 20.8371 13.5129L21.462 13.9538Z" fill="#C93323"/>
<path d="M27.5774 9.11458C27.6665 8.98899 27.6392 8.81346 27.5113 8.72355L26.8879 8.284C26.76 8.19266 26.5833 8.22406 26.4943 8.34965C26.4052 8.47523 26.4325 8.65077 26.5603 8.74067L27.1838 9.18022C27.3116 9.27156 27.4883 9.24016 27.5774 9.11458Z" fill="#513918"/>
<path d="M20.4421 13.5785C20.3515 13.7041 20.3832 13.8782 20.5096 13.9681L21.1345 14.4091C21.2609 14.4976 21.4376 14.4705 21.5266 14.3449C21.6171 14.2179 21.587 14.0424 21.4606 13.9539L20.8357 13.5129C20.7092 13.4244 20.5326 13.4515 20.4421 13.5785Z" fill="#513918"/>
<path d="M28.7324 13.5615C31.0696 10.2948 30.2982 5.76234 27.01 3.44043L26.4511 4.22106C28.876 5.93359 29.7207 9.02471 28.6792 11.6563C28.4954 12.123 28.2497 12.5782 27.9437 13.0049C27.5673 13.5315 27.1249 13.9825 26.6322 14.3578C24.4831 15.9933 21.429 16.1317 19.1047 14.4891L18.5458 15.2697C21.8341 17.5917 26.3966 16.8253 28.7324 13.5601V13.5615Z" fill="#CFC122"/>
<path d="M27.01 3.4389C30.2982 5.76081 31.0697 10.2933 28.7324 13.56C26.3966 16.8252 21.8341 17.5915 18.5459 15.2696L17.8247 16.2772C21.6761 18.9958 27.0114 18.0996 29.748 14.2764C32.4847 10.4503 31.5825 5.15 27.7326 2.42993L27.0114 3.43747L27.01 3.4389Z" fill="#009443"/>
<path d="M26.6996 5.77933C26.6651 5.79931 26.6335 5.82215 26.6034 5.84641C25.5892 4.89881 23.7647 4.79177 22.1601 5.68372C20.5541 6.57566 19.6936 8.17831 19.9751 9.53121C19.9392 9.54405 19.9019 9.55832 19.8674 9.57687C19.5126 9.77382 19.3862 10.2191 19.5844 10.5716C19.7826 10.9241 20.2308 11.0497 20.5857 10.8527C20.6201 10.8327 20.6517 10.8099 20.6819 10.7856C21.6961 11.7332 23.5205 11.8403 25.1251 10.9483C26.7312 10.055 27.5917 8.45374 27.3101 7.10084C27.346 7.08799 27.3834 7.07372 27.4179 7.05517C27.7727 6.85823 27.8991 6.41297 27.7009 6.06047C27.5026 5.70798 27.0544 5.58239 26.6996 5.77933Z" fill="#FCC631"/>
<path d="M19.254 12.354C19.2195 12.374 19.1879 12.3969 19.1577 12.4211C18.1435 11.4735 16.3191 11.3665 14.7145 12.2584C13.1084 13.1504 12.248 14.753 12.5295 16.1059C12.4936 16.1188 12.4563 16.133 12.4218 16.153C12.0669 16.3499 11.9405 16.7952 12.1388 17.1477C12.337 17.5002 12.7852 17.6258 13.14 17.4288C13.1745 17.4089 13.2061 17.386 13.2363 17.3618C14.2505 18.3094 16.0749 18.4164 17.6795 17.5245C19.2856 16.6311 20.1461 15.0299 19.8645 13.677C19.9004 13.6641 19.9378 13.6499 19.9723 13.6299C20.3271 13.4329 20.4535 12.9877 20.2553 12.6352C20.057 12.2827 19.6088 12.1571 19.254 12.354Z" fill="#77A72C"/>
<path d="M21.2207 1.63779C21.2724 1.65349 21.3385 1.67775 21.4046 1.68917C21.4735 1.70201 21.5511 1.72056 21.6287 1.72627C21.9433 1.76195 22.2981 1.70486 22.5811 1.53218C22.7248 1.44798 22.8512 1.3381 22.9546 1.20823C23.0063 1.14401 23.0494 1.07123 23.0896 1.00273C23.1299 0.929943 23.1629 0.855733 23.1902 0.78295C23.2175 0.710168 23.2362 0.633104 23.252 0.563175C23.2721 0.498956 23.2793 0.429027 23.2879 0.37337C23.2965 0.320567 23.2965 0.263482 23.2994 0.232086C23.3023 0.196408 23.3023 0.179283 23.3023 0.179283C23.3023 0.179283 23.2865 0.172147 23.2534 0.159303C23.2247 0.146459 23.173 0.122198 23.1227 0.1065C23.0695 0.0893749 23.0035 0.065114 22.9345 0.0508429C22.8655 0.0351447 22.788 0.0180193 22.7075 0.00945668C22.63 0.00232113 22.5481 -0.00196019 22.4662 0.000894032C22.3857 0.00517536 22.3024 0.0123109 22.222 0.0294362C22.0582 0.0622598 21.9031 0.12648 21.7652 0.216388C21.4836 0.390495 21.2724 0.681626 21.1632 0.977037C21.1359 1.04982 21.1173 1.12688 21.0986 1.19253C21.0785 1.25675 21.0713 1.32668 21.0627 1.37948C21.0512 1.43229 21.0512 1.48794 21.0469 1.51791C21.044 1.55074 21.044 1.56929 21.044 1.56929C21.044 1.56929 21.0598 1.57642 21.09 1.58641C21.1187 1.59783 21.1704 1.62352 21.2207 1.63779Z" fill="#55B477"/>
<path d="M20.7567 2.26575V0.840063C20.7567 0.63884 20.593 0.479004 20.3904 0.479004C20.1879 0.479004 20.027 0.640267 20.027 0.840063V2.26575C20.1419 2.23435 20.264 2.22008 20.3904 2.22008C20.5168 2.22008 20.6418 2.23578 20.7567 2.26575Z" fill="#88561C"/>
<path d="M21.8902 5.31394V3.70987C21.8902 3.01344 21.409 2.4269 20.7568 2.26564C20.6418 2.23424 20.5169 2.21997 20.3905 2.21997C20.264 2.21997 20.1419 2.23567 20.027 2.26564C19.3748 2.4269 18.8936 3.01344 18.8936 3.70987V5.31394C17.8305 5.85625 17.1036 6.95369 17.1036 8.22097C17.1036 10.0263 18.5775 11.4905 20.3919 11.4905C22.2062 11.4905 23.683 10.0263 23.683 8.22097C23.683 6.95369 22.9547 5.85625 21.8931 5.31394H21.8902Z" fill="#DE4D13"/>
<path d="M15.7346 4.12241C15.6829 4.13811 15.6168 4.16237 15.5507 4.17378C15.4817 4.18663 15.4042 4.20518 15.3266 4.21089C15.012 4.24657 14.6572 4.18948 14.3742 4.0168C14.2305 3.9326 14.1041 3.82272 14.0007 3.69285C13.9489 3.62863 13.9058 3.55585 13.8656 3.48734C13.8254 3.41456 13.7924 3.34035 13.7651 3.26757C13.7378 3.19479 13.7191 3.11772 13.7033 3.04779C13.6832 2.98357 13.676 2.91365 13.6674 2.85799C13.6588 2.80519 13.6588 2.7481 13.6559 2.7167C13.653 2.68103 13.653 2.6639 13.653 2.6639C13.653 2.6639 13.6688 2.65677 13.7019 2.64392C13.7306 2.63108 13.7823 2.60682 13.8326 2.59112C13.8857 2.57399 13.9518 2.54973 14.0208 2.53546C14.0897 2.51976 14.1673 2.50264 14.2477 2.49408C14.3253 2.48694 14.4072 2.48266 14.4891 2.48551C14.5695 2.48979 14.6529 2.49693 14.7333 2.51406C14.8971 2.54688 15.0522 2.6111 15.1901 2.70101C15.4717 2.87511 15.6829 3.16624 15.792 3.46166C15.8193 3.53444 15.838 3.6115 15.8567 3.67715C15.8768 3.74137 15.884 3.8113 15.8926 3.8641C15.9041 3.9169 15.9041 3.97256 15.9084 4.00253C15.9113 4.03535 15.9113 4.05391 15.9113 4.05391C15.9113 4.05391 15.8955 4.06104 15.8653 4.07103C15.8366 4.08245 15.7849 4.10814 15.7346 4.12241Z" fill="#77A72C"/>
<path d="M16.1985 4.75183V3.32615C16.1985 3.12492 16.3623 2.96509 16.5649 2.96509C16.7674 2.96509 16.9283 3.12635 16.9283 3.32615V4.75183C16.8134 4.72043 16.6913 4.70616 16.5649 4.70616C16.4384 4.70616 16.3135 4.72186 16.1985 4.75183Z" fill="#88561C"/>
<path d="M15.0637 7.80003V6.19596C15.0637 5.49953 15.5449 4.91299 16.1971 4.75172C16.312 4.72033 16.437 4.70605 16.5634 4.70605C16.6899 4.70605 16.812 4.72175 16.9269 4.75172C17.5791 4.91299 18.0603 5.49953 18.0603 6.19596V7.80003C19.1234 8.34233 19.8503 9.43978 19.8503 10.7071C19.8503 12.5123 18.3764 13.9766 16.562 13.9766C14.7476 13.9766 13.2709 12.5123 13.2709 10.7071C13.2709 9.43978 13.9992 8.34233 15.0608 7.80003H15.0637Z" fill="#CFC122"/>
<path d="M7.14459 5.44613C7.21642 5.45184 7.31123 5.46611 7.40173 5.46183C7.49654 5.4604 7.60428 5.46183 7.70772 5.44898C8.13293 5.40902 8.58545 5.23492 8.90867 4.92952C9.07531 4.77967 9.21178 4.59843 9.30947 4.39863C9.35831 4.30016 9.39709 4.1917 9.43014 4.09037C9.46318 3.98334 9.48472 3.87488 9.50053 3.77213C9.51489 3.66938 9.52064 3.56092 9.52064 3.46387C9.52926 3.37396 9.51777 3.27978 9.51489 3.20414C9.51202 3.13136 9.49622 3.05572 9.49047 3.01433C9.48329 2.96724 9.47898 2.9444 9.47898 2.9444C9.47898 2.9444 9.45599 2.94012 9.40859 2.93156C9.36693 2.92157 9.29223 2.90445 9.2204 2.89731C9.1457 2.88875 9.05089 2.87448 8.95608 2.87733C8.86126 2.87733 8.75352 2.87448 8.64578 2.88447C8.54091 2.89731 8.43174 2.91444 8.32399 2.94012C8.22056 2.96867 8.10995 3.00006 8.00939 3.04573C7.80253 3.13421 7.61434 3.26265 7.45919 3.41963C7.13597 3.72789 6.93916 4.16887 6.87883 4.58986C6.86446 4.69261 6.85872 4.80108 6.85441 4.89241C6.84579 4.98232 6.85728 5.07651 6.86015 5.14929C6.86015 5.22207 6.87596 5.29486 6.87883 5.33624C6.88457 5.38048 6.89032 5.40332 6.89032 5.40332C6.89032 5.40332 6.91331 5.4076 6.9564 5.41331C6.99806 5.42044 7.07276 5.44042 7.14315 5.4447L7.14459 5.44613Z" fill="#009443"/>
<path d="M6.69354 6.3324L6.3143 4.54566C6.26689 4.3216 6.07727 4.14036 5.84598 4.13465C5.5127 4.12751 5.28142 4.42007 5.34606 4.72262L5.73106 6.53362C5.87759 6.46512 6.03417 6.41089 6.20081 6.37521C6.36745 6.34096 6.53265 6.32812 6.69498 6.33097L6.69354 6.3324Z" fill="#88561C"/>
<path d="M4.88491 9.56759C5.74971 9.40062 6.59728 9.77452 7.06703 10.4581C7.2193 9.64466 7.84276 8.9625 8.70181 8.76841C8.5754 8.56434 8.47915 8.33742 8.42743 8.09053C8.3671 7.80939 8.3671 7.52825 8.41738 7.26138C8.03238 6.70053 7.39025 6.34946 6.69496 6.33233C6.53263 6.32805 6.36743 6.3409 6.20079 6.37658C6.03415 6.41083 5.879 6.46648 5.73104 6.53498C5.10039 6.82897 4.65794 7.40695 4.53296 8.07484C4.68667 8.29889 4.80016 8.55577 4.86049 8.83691C4.91364 9.0838 4.91795 9.33069 4.88491 9.56759Z" fill="#922874"/>
<path d="M4.8504 9.57331C4.8619 9.57045 4.87339 9.57045 4.88488 9.5676C4.91792 9.3307 4.91361 9.08523 4.86046 8.83692C4.80013 8.55578 4.68664 8.2989 4.53293 8.07484C4.03732 7.35415 3.12224 6.97597 2.21003 7.21572C1.14843 7.49401 0.454575 8.57005 0.645636 9.64609C0.855372 10.8277 1.99743 11.5969 3.16965 11.37C3.29032 10.5038 3.94107 9.76454 4.85184 9.57331H4.8504Z" fill="#A54A8F"/>
<path d="M12.6106 7.13866C12.3478 6.07831 11.2761 5.3719 10.1915 5.54315C9.25919 5.69014 8.57539 6.4037 8.41593 7.26139C8.36565 7.52826 8.36565 7.80797 8.42599 8.09054C8.47914 8.33743 8.57395 8.56434 8.70037 8.76842C8.71186 8.76556 8.72192 8.76271 8.73341 8.75986C9.64418 8.56862 10.5406 8.98391 11.0017 9.72886C12.1668 9.46628 12.898 8.30461 12.6092 7.14009L12.6106 7.13866Z" fill="#A54A8F"/>
<path d="M7.31414 11.9052C7.20496 11.7168 7.12308 11.5099 7.07567 11.2858C7.01534 11.0047 7.01534 10.7236 7.06561 10.4567C6.59586 9.7731 5.7483 9.39919 4.8835 9.56617C4.87201 9.56902 4.86052 9.56902 4.84902 9.57187C3.93825 9.76311 3.2875 10.5024 3.16683 11.3686C3.13379 11.6055 3.1381 11.851 3.19125 12.0993C3.43115 13.2324 4.53729 13.9631 5.67791 13.7547C5.76985 12.8771 6.40911 12.1193 7.31414 11.9052Z" fill="#761751"/>
<path d="M8.73482 8.75832C8.72333 8.76118 8.71327 8.76403 8.70178 8.76688C7.84273 8.96097 7.21927 9.64313 7.06699 10.4566C7.01672 10.7235 7.01672 11.0032 7.07705 11.2857C7.12446 11.5098 7.20634 11.7167 7.31552 11.9051C7.33419 11.9008 7.35287 11.8937 7.37154 11.8908C8.30673 11.6953 9.22612 12.1363 9.6772 12.9183C10.8049 12.65 11.5188 11.5398 11.2789 10.4066C11.2258 10.1597 11.131 9.93283 11.0046 9.72876C10.542 8.9838 9.64703 8.56851 8.73626 8.75975L8.73482 8.75832Z" fill="#8B406A"/>
<path d="M7.37012 11.8909C7.35145 11.8951 7.33277 11.9009 7.3141 11.9051C6.40907 12.1206 5.77124 12.877 5.67787 13.7547C5.64052 14.1057 5.68936 14.4754 5.84738 14.8378C6.19646 15.6313 7.01817 16.1479 7.88871 16.1094C9.25343 16.0509 10.1829 14.8064 9.91281 13.5363C9.8654 13.3123 9.78352 13.1053 9.67434 12.917C9.22326 12.1349 8.30388 11.6939 7.36868 11.8894L7.37012 11.8909Z" fill="#922874"/>
<g clip-path="url(#clip0_420_374)">
<path fill-rule="evenodd" clip-rule="evenodd" d="M18.3854 6.4014C18.9667 6.26084 19.4529 6.19626 19.8442 6.20765C20.5033 6.07089 21.1378 5.64161 21.7456 4.91602C22.1578 5.05658 22.3648 5.29971 22.3629 5.64351C21.605 6.10508 21.1264 6.65213 20.9269 7.28655C20.3077 9.02456 18.7387 9.69507 16.2163 9.2259C13.1106 8.41673 9.14455 5.47066 10.3317 1.7914C10.7477 1.72492 10.9566 1.69263 10.9566 1.69263C12.4363 3.77824 15.5343 6.90286 18.3854 6.4014Z" fill="#FFDD2D"/>
<path fill-rule="evenodd" clip-rule="evenodd" d="M22.1198 5.11736C18.488 9.33227 13.1961 6.16397 10.8142 1.71542L10.9567 1.69263C12.4364 3.77824 15.5344 6.90286 18.3855 6.4014C18.9667 6.26084 19.453 6.19626 19.8443 6.20765C20.5034 6.07089 21.1378 5.64161 21.7456 4.91602C21.8995 4.9692 22.0248 5.03568 22.1217 5.11546L22.1198 5.11736Z" fill="#FFEF8C"/>
<path fill-rule="evenodd" clip-rule="evenodd" d="M10.5084 1.76484C10.3336 6.19059 17.6978 10.774 20.8035 6.84401C21.2631 6.29316 21.7779 5.85249 22.3515 5.52008C22.3591 5.55997 22.361 5.60366 22.361 5.64734C21.6031 6.10891 21.1245 6.65596 20.925 7.29038C20.3058 9.02839 18.7368 9.6989 16.2144 9.22973C13.1106 8.41676 9.14455 5.47069 10.3317 1.79143L10.5084 1.76294V1.76484Z" fill="#E2D426"/>
<path fill-rule="evenodd" clip-rule="evenodd" d="M10.6736 1.66601C10.7686 1.63562 10.8617 1.64511 10.9567 1.6926C10.9567 1.6926 10.9263 1.73059 10.8636 1.80847C10.8636 1.80847 10.7439 1.82176 10.5046 1.85026C10.5046 1.85026 10.4476 1.83126 10.3298 1.79137C10.364 1.74199 10.4267 1.6983 10.5179 1.66411C10.5597 1.64321 10.611 1.64321 10.6717 1.66411L10.6736 1.66601Z" fill="#996633"/>
<path fill-rule="evenodd" clip-rule="evenodd" d="M18.2487 6.70917C18.4519 6.73766 20.0323 6.55151 19.7056 6.40715C19.5669 6.35017 19.3162 6.39196 18.9971 6.47363C18.8717 6.51732 17.7415 6.61989 18.2487 6.70917Z" fill="white"/>
<path fill-rule="evenodd" clip-rule="evenodd" d="M20.4292 6.14314C20.2203 6.26661 20.245 6.33309 20.4691 6.24191C20.8851 6.02158 21.3277 5.67587 21.7931 5.20291C21.8387 5.13073 21.738 5.08134 21.6544 5.17821C21.2099 5.62459 20.8015 5.9456 20.4292 6.14314Z" fill="white"/>
<path fill-rule="evenodd" clip-rule="evenodd" d="M18.9573 7.56775C19.4587 7.23914 19.8956 7.0169 20.2679 6.89724C20.8434 6.54774 21.2974 5.93041 21.6279 5.04336C22.0629 5.03766 22.3383 5.19722 22.4523 5.52392C21.8919 6.21153 21.6241 6.88964 21.6488 7.55255C21.6469 9.39693 20.3933 10.5556 17.8594 10.9583C14.6607 11.2337 9.93861 9.78632 9.82465 5.92091C10.195 5.71957 10.3812 5.6189 10.3812 5.6189C12.4744 7.08718 16.4386 8.99615 18.9573 7.56775Z" fill="#FFDD2D"/>
<path fill-rule="evenodd" clip-rule="evenodd" d="M22.0476 5.10601C20.0361 10.2954 13.9882 9.08159 10.2538 5.68725L10.3811 5.61887C12.4743 7.08716 16.4385 8.99612 18.9572 7.56772C19.4587 7.23911 19.8955 7.01688 20.2678 6.89721C20.8434 6.54771 21.2973 5.93038 21.6278 5.04333C21.7912 5.04143 21.9318 5.06233 22.0495 5.10601H22.0476Z" fill="#FFEF8C"/>
<path fill-rule="evenodd" clip-rule="evenodd" d="M9.98224 5.83553C11.2986 10.0656 19.774 11.9176 21.3847 7.17275C21.6336 6.50034 21.9717 5.91151 22.4009 5.40625C22.4199 5.44234 22.4389 5.48033 22.4522 5.52402C21.8919 6.21162 21.6241 6.88973 21.6488 7.55264C21.6469 9.39702 20.3932 10.5557 17.8593 10.9584C14.6606 11.2338 9.93855 9.78642 9.82458 5.921L9.98224 5.83553Z" fill="#E2D426"/>
<path fill-rule="evenodd" clip-rule="evenodd" d="M10.1038 5.68927C10.1817 5.63039 10.2748 5.60569 10.3792 5.61899C10.3792 5.61899 10.3621 5.66458 10.3298 5.75765C10.3298 5.75765 10.2216 5.81084 10.0069 5.91721C10.0069 5.91721 9.94616 5.91721 9.82269 5.921C9.83979 5.86212 9.88348 5.80134 9.95755 5.73866C9.98985 5.70447 10.0373 5.68737 10.1038 5.68927Z" fill="#996633"/>
<path fill-rule="evenodd" clip-rule="evenodd" d="M18.9306 7.90403C19.1301 7.86224 20.5585 7.15754 20.2014 7.13095C20.0532 7.12335 19.8291 7.24681 19.5555 7.43106C19.453 7.51464 18.4216 7.98951 18.9287 7.90403H18.9306Z" fill="white"/>
<path fill-rule="evenodd" clip-rule="evenodd" d="M20.7978 6.63901C20.644 6.82516 20.6876 6.88024 20.8681 6.71879C21.1872 6.37308 21.4873 5.89822 21.7684 5.29609C21.7874 5.21251 21.6754 5.19921 21.6298 5.32078C21.3601 5.89062 21.0846 6.32939 20.7978 6.63901Z" fill="white"/>
<path fill-rule="evenodd" clip-rule="evenodd" d="M19.66 8.26866C20.0589 7.82228 20.4217 7.49178 20.7503 7.28094C21.2157 6.79277 21.493 6.07858 21.5823 5.13834C22.0021 5.01867 22.3079 5.10225 22.5035 5.38717C22.1407 6.19824 22.0591 6.92004 22.2547 7.55446C22.7315 9.33616 21.8216 10.7798 19.4815 11.8264C16.4632 12.9242 11.5265 12.7533 10.4135 9.05124C10.7193 8.76062 10.8712 8.61436 10.8712 8.61436C13.274 9.48811 17.5991 10.3011 19.66 8.26866Z" fill="#FFDD2D"/>
<path fill-rule="evenodd" clip-rule="evenodd" d="M22.004 5.08888C21.4113 10.622 15.2533 11.0209 10.7667 8.71496L10.8712 8.61429C13.274 9.48804 17.5991 10.301 19.66 8.26859C20.0589 7.82221 20.4217 7.49171 20.7503 7.28087C21.2157 6.7927 21.493 6.0785 21.5823 5.13827C21.738 5.09458 21.8786 5.07749 22.0059 5.08888H22.004Z" fill="#FFEF8C"/>
<path fill-rule="evenodd" clip-rule="evenodd" d="M10.5426 8.92789C12.9131 12.6698 21.5784 12.2558 21.9014 7.25637C21.9659 6.54217 22.1407 5.88495 22.4237 5.28662C22.4522 5.31701 22.4788 5.3493 22.5035 5.38539C22.1407 6.19646 22.059 6.91826 22.2547 7.55268C22.7314 9.33438 21.8216 10.778 19.4814 11.8246C16.4632 12.9225 11.5265 12.7515 10.4134 9.04946L10.5426 8.92599V8.92789Z" fill="#E2D426"/>
<path fill-rule="evenodd" clip-rule="evenodd" d="M19.7208 8.59906C19.9031 8.50788 21.0979 7.45558 20.7465 7.52206C20.6021 7.55435 20.4179 7.731 20.2013 7.97983C20.1235 8.0881 19.2516 8.8137 19.7189 8.59906H19.7208Z" fill="white"/>
<path fill-rule="evenodd" clip-rule="evenodd" d="M21.1948 6.89338C21.0941 7.11371 21.1511 7.1555 21.284 6.95226C21.5025 6.53438 21.6696 5.99873 21.7836 5.34341C21.7798 5.25794 21.6696 5.27503 21.6544 5.4023C21.5424 6.02152 21.3885 6.51918 21.1948 6.89148V6.89338Z" fill="white"/>
<path fill-rule="evenodd" clip-rule="evenodd" d="M10.6223 8.75292C10.6831 8.67504 10.7648 8.62945 10.8712 8.61426C10.8712 8.61426 10.8674 8.66364 10.8598 8.76242C10.8598 8.76242 10.7705 8.84219 10.5881 9.00175C10.5881 9.00175 10.5293 9.01884 10.4115 9.05303C10.4115 8.99225 10.44 8.92197 10.4932 8.84219C10.516 8.80041 10.5578 8.77191 10.6204 8.75482L10.6223 8.75292Z" fill="#996633"/>
</g>
<path d="M35 7.16089H33.0908V12.7609H35V7.16089Z" fill="#A87D4F"/>
<path d="M31.3828 17.0549C30.9217 17.0549 30.5496 17.426 30.5496 17.8827C30.5496 18.3393 30.9217 18.7104 31.3828 18.7104C31.844 18.7104 32.216 18.3393 32.216 17.8827C32.216 17.426 31.8425 17.0549 31.3828 17.0549Z" fill="#513918"/>
<path d="M33.0909 7.16081V5.74512H29.6719V20.6841H33.0909V7.16081ZM31.3828 18.7118C30.9217 18.7118 30.5496 18.3408 30.5496 17.8841C30.5496 17.4274 30.9217 17.0564 31.3828 17.0564C31.8439 17.0564 32.216 17.4274 32.216 17.8841C32.216 18.3408 31.8425 18.7118 31.3828 18.7118ZM32.216 9.9608C32.216 10.4175 31.8425 10.7885 31.3828 10.7885C30.9231 10.7885 30.5496 10.4175 30.5496 9.9608C30.5496 9.50413 30.9217 9.13308 31.3828 9.13308C31.8439 9.13308 32.216 9.50413 32.216 9.9608Z" fill="#88561C"/>
<path d="M35 15.0828H33.0908V20.6827H35V15.0828Z" fill="#A87D4F"/>
<path d="M30.5496 9.96078C30.5496 10.4175 30.9217 10.7885 31.3828 10.7885C31.844 10.7885 32.216 10.4175 32.216 9.96078C32.216 9.50411 31.8425 9.13306 31.3828 9.13306C30.9231 9.13306 30.5496 9.50411 30.5496 9.96078Z" fill="#513918"/>
<path d="M29.6733 7.16089H5.32526V12.7609H29.6733V7.16089Z" fill="#A87D4F"/>
<path d="M29.6733 15.0828H5.32526V20.6827H29.6733V15.0828Z" fill="#A87D4F"/>
<path d="M3.61719 17.0549C3.1575 17.0549 2.784 17.426 2.784 17.8827C2.784 18.3393 3.1575 18.7104 3.61719 18.7104C4.07689 18.7104 4.45039 18.3393 4.45039 17.8827C4.45039 17.426 4.07689 17.0549 3.61719 17.0549Z" fill="#513918"/>
<path d="M4.45039 9.96078C4.45039 9.50411 4.07689 9.13306 3.61719 9.13306C3.1575 9.13306 2.784 9.50411 2.784 9.96078C2.784 10.4175 3.1575 10.7885 3.61719 10.7885C4.07689 10.7885 4.45039 10.4175 4.45039 9.96078Z" fill="#513918"/>
<path d="M5.32529 12.7608V5.74512H1.90918V20.6841H5.32672V12.7608H5.32529ZM2.78404 9.9608C2.78404 9.50413 3.15754 9.13308 3.61723 9.13308C4.07693 9.13308 4.45043 9.50413 4.45043 9.9608C4.45043 10.4175 4.07693 10.7885 3.61723 10.7885C3.15754 10.7885 2.78404 10.4175 2.78404 9.9608ZM3.61723 18.7118C3.15754 18.7118 2.78404 18.3408 2.78404 17.8841C2.78404 17.4274 3.15754 17.0564 3.61723 17.0564C4.07693 17.0564 4.45043 17.4274 4.45043 17.8841C4.45043 18.3408 4.07693 18.7118 3.61723 18.7118Z" fill="#88561C"/>
<path d="M1.90917 15.0828H0V20.6827H1.90917V15.0828Z" fill="#A87D4F"/>
<path d="M1.90917 7.16089H0V12.7609H1.90917V7.16089Z" fill="#A87D4F"/>
<defs>
<clipPath id="clip0_420_374">
<rect width="12.677" height="10.7681" fill="white" transform="translate(9.82458 1.64893)"/>
</clipPath>
</defs>
</svg>
