<svg width="22" height="20" viewBox="0 0 22 20" fill="none" xmlns="http://www.w3.org/2000/svg">
<path d="M20.0863 1.92082C18.9841 0.682151 17.4564 0 15.7843 0C13.9181 0 12.3003 0.882456 11.106 2.55189C11.0164 2.67705 10.9326 2.80222 10.8541 2.92612C10.7757 2.80215 10.6919 2.67705 10.6023 2.55189C9.40791 0.882456 7.79017 0 5.92388 0C4.25186 0 2.72403 0.682151 1.62192 1.92076C0.576067 3.09621 0 4.66765 0 6.34556C0 8.16898 0.707594 9.85153 2.22661 11.6408C3.55202 13.2019 5.45316 14.8065 7.6546 16.6646C8.46808 17.3513 9.30932 18.0613 10.2032 18.836C10.39 18.9978 10.622 19.0788 10.854 19.0788C11.086 19.0788 11.3181 18.9978 11.5049 18.836C12.3986 18.0615 13.2398 17.3515 14.0532 16.6649C15.467 15.4716 16.688 14.4411 17.7476 13.4414C19.8047 11.5005 21.7082 9.29759 21.7082 6.34562C21.7082 4.66765 21.1322 3.09628 20.0863 1.92082Z" fill="#AEAEAE"/>
</svg>
