<svg width="19" height="19" viewBox="0 0 19 19" fill="none" xmlns="http://www.w3.org/2000/svg">
<path d="M17.8252 7.96914L10.3512 0.494136C10.1946 0.337481 10.0087 0.213211 9.80413 0.128425C9.59951 0.0436395 9.3802 0 9.15871 0C8.93723 0 8.71792 0.0436395 8.5133 0.128425C8.30869 0.213211 8.12279 0.337481 7.96621 0.494136L0.499214 7.96314L0.491214 7.97114C0.260534 8.20283 0.102195 8.49659 0.0354774 8.81666C-0.0312401 9.13673 -0.00345758 9.46929 0.115442 9.77385C0.234341 10.0784 0.439228 10.3418 0.705154 10.532C0.97108 10.7222 1.28657 10.831 1.61321 10.8451H1.66521H1.96521V16.3451C1.96574 16.8685 2.17389 17.3703 2.54397 17.7404C2.91405 18.1105 3.41584 18.3186 3.93921 18.3191H6.85821C7.00064 18.3191 7.13722 18.2626 7.23793 18.1619C7.33864 18.0611 7.39521 17.9246 7.39521 17.7821V13.4721C7.39521 13.2334 7.49004 13.0045 7.65882 12.8357C7.8276 12.667 8.05652 12.5721 8.29521 12.5721H10.0202C10.2589 12.5721 10.4878 12.667 10.6566 12.8357C10.8254 13.0045 10.9202 13.2334 10.9202 13.4721V17.7841C10.9202 17.9266 10.9768 18.0631 11.0775 18.1639C11.1782 18.2646 11.3148 18.3211 11.4572 18.3211H14.3812C14.9046 18.3206 15.4064 18.1125 15.7765 17.7424C16.1465 17.3723 16.3547 16.8705 16.3552 16.3471V10.8471H16.6312C16.9648 10.8472 17.2909 10.7483 17.5683 10.5631C17.8457 10.3779 18.062 10.1145 18.1897 9.80641C18.3175 9.49829 18.3511 9.1592 18.2862 8.832C18.2213 8.5048 18.0609 8.20418 17.8252 7.96814V7.96914Z" fill="white"/>
</svg>
