<svg width="19" height="19" viewBox="0 0 19 19" fill="none" xmlns="http://www.w3.org/2000/svg">
<path d="M1.80379 15.1626C1.8037 14.924 1.74136 14.6898 1.62317 14.4837C1.58824 14.4241 1.55009 14.3665 1.50889 14.3111C0.526584 12.8258 0.00129057 11.0763 0 9.28596C0.0226818 8.04189 0.286287 6.8146 0.775721 5.67434C1.26515 4.53409 1.97081 3.50327 2.85227 2.6409C3.73374 1.77854 4.7737 1.10157 5.91262 0.648758C7.05155 0.195944 8.26705 -0.0238213 9.48956 0.00204468C11.6363 -0.0283179 13.7289 0.687779 15.4213 2.03192C17.1138 3.37607 18.3047 5.26775 18.7973 7.39416C18.9315 8.01889 18.9995 8.65647 19 9.29596C18.9962 10.5388 18.751 11.7687 18.2787 12.9148C17.8064 14.061 17.1162 15.1009 16.2478 15.9749C15.3794 16.8488 14.3498 17.5396 13.2183 18.0074C12.0868 18.4753 10.8755 18.711 9.65421 18.7012C8.78064 18.6607 7.91468 18.5167 7.07385 18.2723C6.45948 18.0997 5.84511 17.8722 5.68538 17.8109C5.52281 17.7484 5.35048 17.7162 5.17668 17.7159C4.98733 17.7152 4.79975 17.753 4.62498 17.8272L1.52609 18.945C1.45833 18.974 1.38668 18.9925 1.31352 19C1.25599 19.0003 1.19896 18.989 1.14574 18.9668C1.09252 18.9445 1.04417 18.9118 1.00348 18.8704C0.9628 18.829 0.930592 18.7798 0.908724 18.7256C0.886857 18.6714 0.875766 18.6134 0.876092 18.5549C0.879811 18.504 0.888873 18.4537 0.903123 18.4048L1.80379 15.1626Z" fill="black"/>
</svg>
