<svg width="63" height="47" viewBox="0 0 63 47" fill="none" xmlns="http://www.w3.org/2000/svg">
<g clip-path="url(#clip0_509_1385)">
<path d="M54.8251 15.5364C57.0539 21.206 60.1612 26.8431 55.9395 32.4395C52.5149 36.9947 43.0141 42.6725 36.6043 45.1941C32.4558 46.8291 27.925 46.8128 23.9554 46.9348C17.1307 47.1463 11.6645 46.9348 7.62175 43.2419C5.91355 41.6801 3.90437 38.0847 3.05027 35.921C0.821472 30.2595 1.66744 22.0845 5.87287 16.48C9.29741 11.9167 15.8618 11.3554 22.2879 8.82563C30.3083 5.66952 38.0115 1.69185 44.3807 3.93692C49.367 5.69393 53.0518 11.0056 54.8332 15.5202L54.8251 15.5364Z" fill="#D1B869"/>
<path d="M31.073 38.0523C48.2342 38.0523 62.1461 29.534 62.1461 19.0261C62.1461 8.51829 48.2342 0 31.073 0C13.9119 0 0 8.51829 0 19.0261C0 29.534 13.9119 38.0523 31.073 38.0523Z" fill="#DEC777"/>
<path d="M9.01272 21.3362C9.55772 22.4913 9.58212 23.6301 9.06966 23.8741C8.5572 24.1182 7.69497 23.3779 7.14997 22.2229C6.60497 21.0678 6.58057 19.929 7.09303 19.685C7.60549 19.4409 8.46773 20.1811 9.01272 21.3362Z" fill="#CEB35B"/>
<path d="M18.4324 26.7537C18.9774 27.9088 19.0018 29.0476 18.4893 29.2916C17.9769 29.5356 17.1146 28.7954 16.5696 27.6403C16.0246 26.4853 16.0002 25.3465 16.5127 25.1024C17.0252 24.8584 17.8874 25.5986 18.4324 26.7537Z" fill="#CEB35B"/>
<path d="M22.4995 16.6509C23.0445 17.806 23.0689 18.9448 22.5565 19.1888C22.044 19.4328 21.1818 18.6926 20.6368 17.5375C20.0918 16.3825 20.0674 15.2437 20.5798 14.9997C21.0923 14.7556 21.9545 15.4958 22.4995 16.6509Z" fill="#CEB35B"/>
<path d="M23.8579 35.5552C24.4029 36.7103 24.4273 37.8491 23.9149 38.0931C23.4024 38.3371 22.5402 37.5969 21.9952 36.4418C21.4502 35.2868 21.4258 34.148 21.9382 33.9039C22.4507 33.6599 23.3129 34.4001 23.8579 35.5552Z" fill="#CEB35B"/>
<path d="M31.1787 27.6565C31.7237 28.8116 31.7481 29.9504 31.2357 30.1944C30.7232 30.4385 29.861 29.6982 29.316 28.5432C28.771 27.3881 28.7466 26.2493 29.259 26.0053C29.7715 25.7612 30.6337 26.5015 31.1787 27.6565Z" fill="#CEB35B"/>
<path d="M32.5454 19.1971C33.0904 20.3521 33.1148 21.4909 32.6024 21.735C32.0899 21.979 31.2277 21.2388 30.6827 20.0837C30.1377 18.9286 30.1133 17.7898 30.6257 17.5458C31.1382 17.3018 32.0004 18.042 32.5454 19.1971Z" fill="#CEB35B"/>
<path d="M39.5408 8.36209C40.0858 9.51717 40.1102 10.656 39.5977 10.9C39.0853 11.144 38.223 10.4038 37.678 9.24873C37.133 8.09366 37.1086 6.95486 37.6211 6.71083C38.1336 6.4668 38.9958 7.20702 39.5408 8.36209Z" fill="#CEB35B"/>
<g opacity="0.3">
<path opacity="0.3" d="M27.3313 12.1525C27.3313 12.1525 29.9424 4.58765 42.5994 6.7351C51.2136 8.19114 52.1654 15.089 50.8069 16.6671C49.4566 18.2451 44.2588 9.70412 40.4276 11.4937C36.5882 13.2832 26.6562 18.9772 27.3395 12.1525H27.3313Z" fill="#FCFCFC"/>
</g>
<path d="M43.6568 19.6363C44.2018 20.7913 44.2262 21.9301 43.7137 22.1742C43.2013 22.4182 42.339 21.678 41.794 20.5229C41.249 19.3678 41.2246 18.229 41.7371 17.985C42.2495 17.741 43.1118 18.4812 43.6568 19.6363Z" fill="#CEB35B"/>
<path d="M36.4335 37.9464C37.1818 39.5245 37.4177 40.9886 36.9541 41.2083C36.4904 41.4279 35.5143 40.3216 34.766 38.7354C34.0176 37.1574 33.7817 35.6932 34.2454 35.4736C34.709 35.254 35.6851 36.3602 36.4335 37.9464Z" fill="#C6A958"/>
<path d="M10.9244 33.7653C11.6728 35.3433 11.9087 36.8075 11.445 37.0271C10.9814 37.2467 10.0053 36.1405 9.25692 34.5543C8.50856 32.9762 8.27267 31.5121 8.73632 31.2924C9.19998 31.0728 10.1761 32.1791 10.9244 33.7653Z" fill="#C6A958"/>
<path d="M48.2282 32.3991C48.9765 33.9771 49.2124 35.4413 48.7488 35.6609C48.2851 35.8805 47.309 34.7743 46.5606 33.1881C45.8123 31.61 45.5764 30.1458 46.04 29.9262C46.5037 29.7066 47.4798 30.8129 48.2282 32.3991Z" fill="#C6A958"/>
<path d="M53.2472 23.5243C53.9956 25.1024 54.2314 26.5665 53.7678 26.7862C53.3041 27.0058 52.328 25.8995 51.5797 24.3133C50.8313 22.7353 50.5954 21.2711 51.0591 21.0515C51.5227 20.8318 52.4988 21.9381 53.2472 23.5243Z" fill="#C6A958"/>
</g>
<defs>
<clipPath id="clip0_509_1385">
<rect width="62.1461" height="47" fill="white"/>
</clipPath>
</defs>
</svg>
