<svg width="20" height="20" viewBox="0 0 20 20" fill="none" xmlns="http://www.w3.org/2000/svg">
<path d="M9.994 11.242C11.1056 11.2418 12.1923 10.912 13.1165 10.2943C14.0407 9.67656 14.761 8.79867 15.1863 7.7716C15.6116 6.74454 15.7229 5.61443 15.5059 4.52415C15.289 3.43388 14.7537 2.43241 13.9676 1.64636C13.1816 0.860305 12.1801 0.324977 11.0898 0.108057C9.99957 -0.108862 8.86946 0.00236812 7.8424 0.427684C6.81534 0.853001 5.93745 1.5733 5.31973 2.49752C4.70201 3.42173 4.3722 4.50836 4.372 5.62C4.37227 7.11097 4.96467 8.54079 6.01894 9.59506C7.07321 10.6493 8.50303 11.2417 9.994 11.242ZM14.994 12.491H12.84C11.9476 12.9023 10.9766 13.1152 9.994 13.1152C9.01138 13.1152 8.04042 12.9023 7.148 12.491H5C3.67392 12.491 2.40215 13.0178 1.46447 13.9555C0.526784 14.8932 0 16.1649 0 17.491L0 18.116C0 18.613 0.197439 19.0897 0.548882 19.4411C0.900325 19.7926 1.37698 19.99 1.874 19.99H18.114C18.611 19.99 19.0877 19.7926 19.4391 19.4411C19.7906 19.0897 19.988 18.613 19.988 18.116V17.491C19.988 16.1654 19.4616 14.8941 18.5246 13.9565C17.5876 13.0189 16.3166 12.4918 14.991 12.491H14.994Z" fill="#00AB59"/>
</svg>
