<svg width="21" height="21" viewBox="0 0 21 21" fill="none" xmlns="http://www.w3.org/2000/svg">
<path d="M20.7143 18.1589L16.6234 14.068C16.5318 13.9766 16.4231 13.9041 16.3035 13.8547C16.1838 13.8054 16.0556 13.7801 15.9262 13.7804H15.2572C16.5935 12.068 17.2264 9.91034 17.0268 7.74741C16.8272 5.58447 15.8101 3.57912 14.1829 2.14026C12.5557 0.701403 10.4409 -0.0626067 8.26978 0.00401806C6.09868 0.0706428 4.03474 0.962885 2.49881 2.49881C0.962885 4.03474 0.0706428 6.09868 0.00401806 8.26978C-0.0626067 10.4409 0.701403 12.5557 2.14026 14.1829C3.57912 15.8101 5.58447 16.8272 7.74741 17.0268C9.91034 17.2264 12.068 16.5935 13.7804 15.2572V15.9262C13.7801 16.0556 13.8054 16.1838 13.8547 16.3035C13.9041 16.4231 13.9766 16.5318 14.068 16.6234L18.1544 20.7188C18.2455 20.8105 18.3539 20.8833 18.4732 20.933C18.5926 20.9827 18.7206 21.0082 18.8499 21.0082C18.9792 21.0082 19.1072 20.9827 19.2266 20.933C19.346 20.8833 19.4543 20.8105 19.5455 20.7188L20.7064 19.5579C20.8929 19.3734 20.9985 19.1224 21 18.86C21.0015 18.5977 20.8987 18.3455 20.7143 18.1589ZM8.5297 13.7804C7.49077 13.7804 6.47518 13.4723 5.61134 12.8951C4.7475 12.3179 4.07423 11.4975 3.67665 10.5376C3.27907 9.5778 3.17504 8.52162 3.37773 7.50265C3.58041 6.48369 4.0807 5.54771 4.81533 4.81308C5.54997 4.07844 6.48594 3.57815 7.50491 3.37547C8.52387 3.17278 9.58006 3.27681 10.5399 3.67439C11.4997 4.07197 12.3201 4.74525 12.8973 5.60908C13.4745 6.47292 13.7826 7.48852 13.7826 8.52744C13.7834 9.21786 13.6479 9.90165 13.384 10.5396C13.1201 11.1776 12.7329 11.7573 12.2447 12.2455C11.7564 12.7336 11.1767 13.1207 10.5386 13.3844C9.90055 13.6482 9.21674 13.7835 8.52632 13.7826L8.5297 13.7804Z" fill="black"/>
</svg>
