<svg width="21" height="23" viewBox="0 0 21 23" fill="none" xmlns="http://www.w3.org/2000/svg">
<path d="M18.4466 3.93062L12.5267 0.491686C11.3931 -0.163895 9.61832 -0.163895 8.48473 0.491686L2.50763 3.95362C0.137405 5.56382 0 5.80535 0 8.37017V14.6155C0 17.1803 0.137405 17.4333 2.55344 19.0665L8.47328 22.5054C9.0458 22.839 9.77863 23 10.5 23C11.2214 23 11.9542 22.839 12.5153 22.5054L18.4924 19.0435C20.8626 17.4333 21 17.1918 21 14.627V8.37017C21 5.80535 20.8626 5.56382 18.4466 3.93062ZM10.5 15.2365C8.45038 15.2365 6.77863 13.5573 6.77863 11.4986C6.77863 9.4398 8.45038 7.76059 10.5 7.76059C12.5496 7.76059 14.2214 9.4398 14.2214 11.4986C14.2214 13.5573 12.5496 15.2365 10.5 15.2365Z" fill="black"/>
</svg>
