<svg width="18" height="21" viewBox="0 0 18 21" fill="none" xmlns="http://www.w3.org/2000/svg">
<path d="M14.1448 13.1218C13.2724 13.1192 12.4251 13.4199 11.7423 13.9745L7.62337 11.3508C7.74457 10.7892 7.74457 10.2073 7.62337 9.64562L11.7411 7.01104C12.4523 7.5876 13.3402 7.88895 14.2479 7.86186C15.1556 7.83477 16.0248 7.48098 16.7018 6.863C17.3788 6.24502 17.8201 5.4026 17.9478 4.48457C18.0754 3.56654 17.8813 2.63198 17.3995 1.84597C16.9178 1.05996 16.1795 0.473094 15.315 0.189038C14.4506 -0.0950172 13.5157 -0.0579807 12.6754 0.293605C11.8351 0.645191 11.1436 1.2887 10.7229 2.11046C10.3022 2.93221 10.1796 3.87933 10.3765 4.7845L6.25992 7.41299C5.69198 6.95149 5.00806 6.66296 4.28673 6.58054C3.56541 6.49812 2.83594 6.62517 2.18215 6.94707C1.52837 7.26898 0.976781 7.77269 0.590774 8.40032C0.204767 9.02796 0 9.75405 0 10.4952C0 11.2363 0.204767 11.9624 0.590774 12.59C0.976781 13.2177 1.52837 13.7214 2.18215 14.0433C2.83594 14.3652 3.56541 14.4922 4.28673 14.4098C5.00806 14.3274 5.69198 14.0389 6.25992 13.5774L10.3765 16.2059C10.2031 17.0022 10.2761 17.8338 10.5854 18.586C10.8947 19.3381 11.4251 19.9736 12.1033 20.4048C12.7815 20.836 13.574 21.0415 14.3715 20.993C15.169 20.9446 15.9321 20.6444 16.5554 20.1342C17.1787 19.6239 17.6315 18.9286 17.8512 18.1443C18.071 17.36 18.0468 16.5254 17.7821 15.7557C17.5173 14.986 17.0251 14.3192 16.3734 13.8475C15.7216 13.3757 14.9425 13.1221 14.1436 13.1218H14.1448Z" fill="#AEAEAE"/>
</svg>
