<svg width="13" height="12" viewBox="0 0 13 12" fill="none" xmlns="http://www.w3.org/2000/svg">
<path d="M4.18758 11.2087C2.72438 11.2087 1.53174 10.0216 1.53174 8.55283V6.98472C1.53174 6.61478 1.89616 6.36632 2.24401 6.48779C2.38757 6.53748 2.53113 6.57061 2.68021 6.5927C2.74647 6.60374 2.81273 6.61478 2.87898 6.61478C2.96181 6.62583 3.05015 6.63135 3.13297 6.63135C3.74586 6.63135 4.35323 6.40497 4.8336 6.01294C5.29188 6.40497 5.88268 6.63135 6.51213 6.63135C7.14159 6.63135 7.72686 6.41601 8.18515 6.01846C8.66 6.40497 9.25632 6.63135 9.86369 6.63135C9.95755 6.63135 10.0569 6.62583 10.1453 6.61478C10.2115 6.60926 10.2668 6.60374 10.3275 6.5927C10.4931 6.57061 10.6422 6.52644 10.7913 6.47675C11.1336 6.36079 11.4925 6.61478 11.4925 6.97368V8.55283C11.4925 10.016 10.3054 11.2087 8.83669 11.2087H4.18758Z" fill="white"/>
<path d="M12.0171 3.72149L11.8625 2.25277C11.6417 0.651537 10.9128 0 9.36127 0H3.64651C2.08945 0 1.36613 0.651537 1.13975 2.26934L0.996191 3.72702C0.940976 4.29573 1.09558 4.84788 1.43239 5.27856C1.83546 5.8031 2.45387 6.10126 3.14406 6.10126C3.81216 6.10126 4.45265 5.76445 4.86124 5.22886C5.22014 5.76445 5.83303 6.10126 6.51769 6.10126C7.20236 6.10126 7.8042 5.78101 8.16862 5.25095C8.57721 5.77549 9.21219 6.10126 9.86925 6.10126C10.576 6.10126 11.211 5.78654 11.6085 5.23439C11.9288 4.80923 12.0723 4.27364 12.0171 3.72149ZM7.33488 3.24664H5.67843C5.45204 3.24664 5.26431 3.06443 5.26431 2.83253C5.26431 2.60615 5.45204 2.41842 5.67843 2.41842H7.33488C7.56126 2.41842 7.74899 2.60615 7.74899 2.83253C7.74899 3.06443 7.56126 3.24664 7.33488 3.24664Z" fill="white"/>
</svg>
