<svg width="48" height="55" viewBox="0 0 48 55" fill="none" xmlns="http://www.w3.org/2000/svg">
<path d="M25.0438 37.1947C25.3602 36.7486 25.2632 36.1251 24.8091 35.8057L22.5944 34.2443C22.1402 33.9199 21.5126 34.0314 21.1962 34.4775C20.8696 34.9287 20.9767 35.5471 21.4309 35.8665L23.6456 37.4279C24.0998 37.7473 24.7223 37.6459 25.0438 37.1947Z" fill="#513918"/>
<path d="M29.2284 19.9027C29.5448 19.4565 29.4427 18.8279 28.9936 18.5136L26.7738 16.9472C26.3248 16.6329 25.692 16.7342 25.3756 17.1804C25.0592 17.6265 25.1613 18.2551 25.6104 18.5694L27.8302 20.1359C28.2792 20.4502 28.912 20.3488 29.2284 19.9027Z" fill="#513918"/>
<path d="M19.599 33.3521C19.9154 32.906 19.8133 32.2774 19.3643 31.9631L17.1445 30.3966C16.6954 30.0823 16.0626 30.1837 15.7463 30.6298C15.4197 31.081 15.5319 31.7045 15.981 32.0188L18.2008 33.5853C18.6499 33.8996 19.2775 33.8033 19.599 33.3521Z" fill="#513918"/>
<path d="M28.2535 32.7082C28.575 32.2621 28.4679 31.6487 28.0137 31.3243L25.799 29.7629C25.3448 29.4384 24.7223 29.5449 24.4059 29.991C24.0793 30.4422 24.1865 31.0607 24.6406 31.38L26.8553 32.9414C27.3095 33.2659 27.932 33.1594 28.2535 32.7082Z" fill="#513918"/>
<path d="M32.4381 15.4162C32.7545 14.9701 32.6473 14.3516 32.1983 14.0322L29.9785 12.4657C29.5294 12.1514 28.9017 12.2477 28.5854 12.6939C28.2639 13.145 28.371 13.7686 28.8201 14.0829L31.0399 15.6494C31.489 15.9637 32.1166 15.8674 32.4381 15.4162Z" fill="#513918"/>
<path d="M22.8139 28.8656C23.1303 28.4195 23.0231 27.801 22.574 27.4817L20.3542 25.9152C19.9052 25.6009 19.2775 25.6972 18.9611 26.1433C18.6345 26.5945 18.7468 27.2181 19.1958 27.5324L21.4156 29.0988C21.8647 29.4131 22.4924 29.3168 22.8139 28.8656Z" fill="#513918"/>
<path d="M31.4584 28.2318C31.7849 27.7806 31.6778 27.1621 31.2236 26.8428L29.0089 25.2814C28.5548 24.9569 27.9322 25.0634 27.6107 25.5146C27.2892 25.9607 27.3913 26.5842 27.8454 26.9036L30.0601 28.465C30.5143 28.7844 31.142 28.6779 31.4584 28.2318Z" fill="#513918"/>
<path d="M21.8341 41.6813C22.1505 41.2352 22.0535 40.6116 21.5994 40.2923L19.3847 38.7309C18.9305 38.4064 18.3028 38.518 17.9864 38.9641C17.6649 39.4102 17.767 40.0337 18.2212 40.3531L20.4359 41.9145C20.89 42.2389 21.5177 42.1274 21.8341 41.6813Z" fill="#513918"/>
<path d="M26.0187 24.3892C26.3452 23.938 26.233 23.3145 25.7839 23.0002L23.5641 21.4337C23.1151 21.1194 22.4874 21.2157 22.1659 21.6669C21.8495 22.113 21.9516 22.7416 22.4006 23.0559L24.6204 24.6224C25.0695 24.9367 25.7023 24.8353 26.0187 24.3892Z" fill="#513918"/>
<path d="M30.3611 41.1995C30.4019 41.1539 30.453 41.1032 30.4938 41.0424C30.8102 40.5963 30.7081 39.9677 30.259 39.6534L28.0443 38.092C27.5902 37.7675 26.9625 37.879 26.6461 38.3252C26.3195 38.7763 26.4267 39.3948 26.8809 39.7142L29.0956 41.2756C29.4885 41.5493 30.0141 41.5138 30.3611 41.1945V41.1995Z" fill="#513918"/>
<path d="M36.9083 32.0797C37.2349 31.6285 37.1226 31.005 36.6735 30.6907L34.4588 29.1293C34.0047 28.8048 33.3821 28.9113 33.0606 29.3625C32.7443 29.8086 32.8412 30.4321 33.2954 30.7515L35.5101 32.3129C35.9591 32.6272 36.5919 32.5258 36.9083 32.0797Z" fill="#513918"/>
<path d="M33.7035 36.5559C34.0199 36.1098 33.9127 35.4913 33.4636 35.1719L31.249 33.6105C30.7948 33.2861 30.1722 33.3925 29.8558 33.8386C29.5293 34.2898 29.6364 34.9083 30.0906 35.2277L32.3053 36.7891C32.7543 37.1034 33.382 37.0071 33.7035 36.5559Z" fill="#513918"/>
<path d="M16.3893 37.8385C16.7057 37.3923 16.6036 36.7637 16.1546 36.4494L13.9347 34.883C13.4857 34.5686 12.8529 34.67 12.5365 35.1161C12.215 35.5623 12.3222 36.1909 12.7713 36.5052L14.9911 38.0717C15.4401 38.386 16.0729 38.2846 16.3893 37.8385Z" fill="#513918"/>
<path d="M31.3102 42.3707C33.0554 41.0375 34.6322 39.4355 35.9692 37.5649C37.0562 36.0491 37.9237 34.432 38.582 32.7742C42.2816 23.4312 39.2811 12.4457 30.6672 6.3623L20.5378 20.5213L14.1233 29.4892L4.57056 42.8422C12.8272 48.6721 23.6812 48.1854 31.3102 42.3758V42.3707ZM28.8148 14.0831C28.3658 13.7688 28.2535 13.1453 28.5801 12.6941C28.9016 12.248 29.5242 12.1516 29.9732 12.4659L32.193 14.0324C32.6421 14.3467 32.7543 14.9703 32.4329 15.4164C32.1063 15.8676 31.4837 15.9689 31.0346 15.6496L28.8148 14.0831ZM25.6051 18.5696C25.156 18.2553 25.0488 17.6267 25.3703 17.1806C25.6918 16.7344 26.3195 16.628 26.7685 16.9474L28.9883 18.5138C29.4374 18.8281 29.5446 19.4567 29.2231 19.9029C28.9016 20.349 28.2739 20.4554 27.8249 20.1361L25.6051 18.5696ZM31.0551 22.4173C30.6009 22.0929 30.4988 21.4744 30.8203 21.0283C31.1418 20.5822 31.7644 20.4706 32.2185 20.7951L34.4332 22.3565C34.8874 22.6809 34.9895 23.2994 34.668 23.7455C34.3516 24.1916 33.7239 24.3032 33.2697 23.9787L31.0551 22.4173ZM22.3953 23.0561C21.9462 22.7418 21.8391 22.1131 22.1606 21.667C22.4871 21.2158 23.1097 21.1145 23.5588 21.4338L25.7786 23.0003C26.2276 23.3146 26.3399 23.9382 26.0133 24.3893C25.6969 24.8354 25.0641 24.9419 24.6151 24.6225L22.3953 23.0561ZM27.8453 26.9038C27.3911 26.5793 27.289 25.9609 27.6105 25.5148C27.9371 25.0636 28.5546 24.9571 29.0088 25.2816L31.2235 26.843C31.6776 27.1674 31.7848 27.7808 31.4582 28.232C31.1418 28.6781 30.5141 28.7896 30.06 28.4652L27.8453 26.9038ZM33.2953 30.7515C32.8411 30.4271 32.739 29.8086 33.0605 29.3625C33.3871 28.9113 34.0046 28.8048 34.4587 29.1293L36.6734 30.6907C37.1225 31.005 37.2348 31.6285 36.9082 32.0797C36.5918 32.5258 35.959 32.6323 35.51 32.3129L33.2953 30.7515ZM19.1906 27.5324C18.7415 27.2181 18.6293 26.5946 18.9559 26.1434C19.2723 25.6973 19.8999 25.6009 20.349 25.9152L22.5688 27.4817C23.0178 27.796 23.1301 28.4196 22.8086 28.8657C22.482 29.3169 21.8595 29.4182 21.4104 29.0989L19.1906 27.5324ZM24.6406 31.3801C24.1864 31.0557 24.0793 30.4423 24.4059 29.9911C24.7222 29.545 25.3448 29.4436 25.799 29.763L28.0137 31.3244C28.4678 31.6488 28.575 32.2622 28.2535 32.7083C27.9269 33.1595 27.3095 33.266 26.8553 32.9415L24.6406 31.3801ZM30.0906 35.2279C29.6364 34.9034 29.5293 34.29 29.8558 33.8388C30.1722 33.3927 30.7948 33.2913 31.249 33.6107L33.4637 35.1721C33.9127 35.4864 34.025 36.1099 33.7035 36.5561C33.3769 37.0072 32.7543 37.1086 32.3053 36.7893L30.0906 35.2279ZM15.9808 32.0189C15.5318 31.6995 15.4195 31.081 15.7461 30.6299C16.0625 30.1837 16.6953 30.0773 17.1443 30.3967L19.3641 31.9631C19.8132 32.2774 19.9203 32.906 19.5988 33.3522C19.2723 33.8033 18.6497 33.9047 18.2006 33.5854L15.9808 32.0189ZM21.4308 35.8666C20.9767 35.5422 20.8695 34.9288 21.1961 34.4776C21.5125 34.0315 22.1401 33.9199 22.5943 34.2444L24.809 35.8058C25.2632 36.1302 25.3652 36.7487 25.0437 37.1948C24.7171 37.646 24.0997 37.7525 23.6455 37.428L21.4308 35.8666ZM26.8808 39.7143C26.4266 39.3899 26.3195 38.7765 26.6461 38.3253C26.9625 37.8792 27.5901 37.7677 28.0443 38.0921L30.259 39.6535C30.708 39.9678 30.8152 40.5964 30.4937 41.0425C30.4529 41.0983 30.4019 41.1541 30.361 41.1997C30.014 41.5191 29.4833 41.5546 29.0955 41.2808L26.8808 39.7194V39.7143ZM12.7711 36.5054C12.322 36.1911 12.2148 35.5624 12.5363 35.1163C12.8527 34.6702 13.4855 34.5638 13.9345 34.8831L16.1543 36.4496C16.6034 36.7639 16.7106 37.3925 16.3891 37.8386C16.0676 38.2847 15.4399 38.3912 14.9909 38.0718L12.7711 36.5054ZM18.221 40.3531C17.7669 40.0286 17.6648 39.4102 17.9863 38.9641C18.3027 38.5179 18.9304 38.4064 19.3845 38.7309L21.5992 40.2923C22.0534 40.6116 22.1554 41.2352 21.834 41.6813C21.5125 42.1274 20.8899 42.2389 20.4357 41.9145L18.221 40.3531ZM12.9446 40.9361C13.3936 41.2504 13.5059 41.8739 13.1793 42.3251C12.8578 42.7712 12.2352 42.8675 11.7862 42.5532L9.56638 40.9868C9.11731 40.6725 9.00505 40.0489 9.32654 39.6028C9.65313 39.1516 10.2757 39.0502 10.7248 39.3696L12.9446 40.9361Z" fill="#C93323"/>
<path d="M34.6681 23.7455C34.9844 23.2994 34.8875 22.6759 34.4333 22.3565L32.2186 20.7951C31.7645 20.4706 31.1368 20.5822 30.8204 21.0283C30.504 21.4744 30.601 22.0979 31.0551 22.4173L33.2698 23.9787C33.724 24.3032 34.3517 24.1916 34.6681 23.7455Z" fill="#513918"/>
<path d="M9.32167 39.6027C9.00019 40.0488 9.11245 40.6673 9.56151 40.9866L11.7813 42.5531C12.2304 42.8674 12.858 42.7711 13.1744 42.325C13.4959 41.8738 13.3887 41.2503 12.9397 40.936L10.7199 39.3695C10.2708 39.0552 9.64316 39.1515 9.32167 39.6027Z" fill="#513918"/>
<path d="M38.771 39.5418C47.0735 27.9378 44.3332 11.8371 32.6525 3.58911L30.6674 6.36211C39.2813 12.4455 42.2818 23.4259 38.5822 32.774C37.929 34.4318 37.0564 36.0489 35.9694 37.5647C34.6325 39.4353 33.0607 41.0373 31.3104 42.3706C23.6763 48.1802 12.8274 48.6719 4.57076 42.8369L2.58569 45.6099C14.2664 53.858 30.4735 51.1357 38.771 39.5367V39.5418Z" fill="#CFC122"/>
<path d="M32.6524 3.58411C44.3331 11.8321 47.0734 27.9328 38.7709 39.5368C30.4734 51.1357 14.2664 53.858 2.58563 45.61L0.0239258 49.1891C13.705 58.8464 32.6575 55.6628 42.3787 42.0817C52.0999 28.4904 48.8952 9.66241 35.2192 0L32.6575 3.57905L32.6524 3.58411Z" fill="#009443"/>
</svg>
